<?xml version="1.0" encoding="UTF-8"?>
<svg xmlns="http://www.w3.org/2000/svg" viewBox="0 0 300 100" width="600" height="200">
  <path d="M33.77,7.97C33.75,7.98 33.76,7.99 33.75,7.99C33.74,7.99 33.73,7.99 33.72,7.99C33.71,7.99 33.72,8.00 33.70,8.01C33.68,8.02 33.61,8.04 33.58,8.06C33.55,8.08 33.52,8.10 33.51,8.11C33.50,8.12 33.53,8.08 33.49,8.11C33.46,8.15 33.32,8.28 33.29,8.32C33.25,8.36 33.29,8.33 33.29,8.34C33.28,8.35 33.27,8.35 33.25,8.37C33.24,8.40 33.23,8.45 33.20,8.49C33.17,8.54 33.12,8.60 33.10,8.63C33.08,8.66 33.09,8.65 33.08,8.68C33.06,8.71 33.02,8.78 33.01,8.80C33.00,8.83 33.01,8.83 33.01,8.84C33.01,8.85 33.00,8.81 32.99,8.86C32.99,8.90 32.99,9.05 32.99,9.10C33.00,9.14 33.01,9.11 33.01,9.11C33.01,9.12 33.00,9.13 33.01,9.15C33.02,9.17 33.05,9.21 33.06,9.24C33.08,9.26 33.07,9.28 33.10,9.32C33.12,9.36 33.18,9.42 33.20,9.46C33.22,9.50 33.22,9.52 33.23,9.55C33.25,9.57 33.28,9.60 33.29,9.62C33.29,9.63 33.23,9.57 33.29,9.63C33.35,9.70 33.59,9.94 33.65,10.00C33.71,10.06 33.66,9.99 33.67,10.00C33.67,10.00 33.69,10.02 33.70,10.03C33.71,10.04 33.71,10.02 33.72,10.03C33.73,10.04 33.74,10.06 33.75,10.06C33.76,10.07 33.75,10.05 33.77,10.06C33.79,10.08 33.84,10.14 33.86,10.15C33.87,10.17 33.86,10.15 33.87,10.15C33.88,10.16 33.89,10.17 33.91,10.19C33.93,10.20 33.97,10.21 33.99,10.22C34.02,10.23 34.06,10.26 34.08,10.27C34.10,10.28 34.11,10.27 34.12,10.27C34.12,10.27 34.12,10.29 34.13,10.29C34.15,10.29 34.20,10.29 34.22,10.29C34.24,10.29 34.23,10.30 34.24,10.31C34.24,10.31 34.26,10.30 34.27,10.31C34.28,10.31 34.28,10.32 34.29,10.32C34.30,10.33 34.31,10.32 34.32,10.32C34.33,10.33 34.31,10.34 34.34,10.34C34.37,10.34 34.45,10.34 34.48,10.34C34.50,10.34 34.49,10.33 34.50,10.32C34.50,10.32 34.52,10.33 34.53,10.32C34.54,10.32 34.54,10.31 34.55,10.31C34.56,10.30 34.57,10.31 34.58,10.31C34.59,10.30 34.58,10.29 34.60,10.29C34.62,10.28 34.67,10.28 34.69,10.27C34.70,10.27 34.69,10.26 34.70,10.25C34.71,10.25 34.74,10.25 34.75,10.24C34.77,10.23 34.78,10.21 34.79,10.20C34.80,10.20 34.74,10.26 34.81,10.20C34.87,10.14 35.11,9.90 35.17,9.84C35.23,9.78 35.16,9.83 35.17,9.82C35.17,9.81 35.19,9.81 35.20,9.79C35.22,9.76 35.24,9.70 35.26,9.67C35.27,9.64 35.28,9.64 35.29,9.62C35.30,9.59 35.30,9.55 35.31,9.53C35.31,9.51 35.32,9.52 35.32,9.51C35.33,9.50 35.32,9.49 35.32,9.48C35.33,9.47 35.34,9.47 35.34,9.46C35.34,9.45 35.34,9.43 35.34,9.43C35.34,9.42 35.36,9.47 35.36,9.41C35.36,9.35 35.36,9.12 35.36,9.06C35.36,9.00 35.34,9.05 35.34,9.05C35.34,9.04 35.34,9.02 35.34,9.01C35.34,9.00 35.33,9.00 35.32,8.99C35.32,8.99 35.33,8.97 35.32,8.96C35.32,8.95 35.31,8.95 35.31,8.94C35.30,8.93 35.31,8.92 35.31,8.91C35.30,8.90 35.29,8.90 35.29,8.89C35.29,8.88 35.29,8.86 35.29,8.86C35.29,8.85 35.28,8.86 35.27,8.84C35.27,8.82 35.26,8.77 35.26,8.75C35.25,8.73 35.24,8.75 35.24,8.73C35.23,8.72 35.23,8.70 35.22,8.68C35.21,8.67 35.19,8.66 35.19,8.65C35.18,8.64 35.19,8.64 35.19,8.63C35.18,8.62 35.16,8.61 35.15,8.60C35.15,8.59 35.16,8.59 35.15,8.58C35.15,8.57 35.12,8.55 35.12,8.54C35.11,8.54 35.15,8.56 35.12,8.53C35.09,8.49 34.96,8.37 34.93,8.34C34.90,8.30 34.93,8.33 34.93,8.32C34.92,8.31 34.90,8.29 34.89,8.29C34.89,8.28 34.90,8.28 34.89,8.27C34.89,8.26 34.86,8.24 34.86,8.23C34.85,8.23 34.88,8.25 34.86,8.22C34.83,8.19 34.73,8.09 34.70,8.06C34.67,8.04 34.69,8.07 34.69,8.06C34.68,8.06 34.66,8.03 34.65,8.03C34.64,8.02 34.64,8.03 34.63,8.03C34.62,8.02 34.60,8.00 34.58,7.99C34.57,7.99 34.56,7.99 34.55,7.99C34.54,7.99 34.55,7.98 34.53,7.97C34.51,7.97 34.46,7.98 34.44,7.97C34.43,7.97 34.43,7.96 34.43,7.96C34.42,7.95 34.40,7.96 34.39,7.96C34.38,7.95 34.38,7.94 34.37,7.94C34.37,7.94 34.35,7.94 34.34,7.94C34.33,7.94 34.38,7.93 34.32,7.92C34.26,7.92 34.04,7.92 33.98,7.92C33.92,7.93 33.97,7.94 33.96,7.94C33.95,7.94 33.93,7.94 33.93,7.94C33.92,7.94 33.92,7.95 33.91,7.96C33.90,7.96 33.88,7.95 33.87,7.96C33.86,7.96 33.87,7.97 33.86,7.97C33.84,7.98 33.79,7.97 33.77,7.97Z M23.80,18.48C22.92,19.24 24.19,19.03 24.79,18.94C25.38,18.86 26.79,17.85 27.38,17.96C27.97,18.06 27.78,19.29 28.31,19.56C28.84,19.84 28.84,20.39 30.54,19.62C32.24,18.85 37.04,15.63 38.52,14.95C40.00,14.28 39.67,14.87 39.40,15.57C39.14,16.28 37.20,18.37 36.93,19.17C36.67,19.96 37.29,20.16 37.81,20.34C38.34,20.52 39.17,20.49 40.07,20.24C40.98,19.99 42.58,18.81 43.24,18.86C43.89,18.90 43.62,20.18 44.01,20.51C44.41,20.85 45.06,20.92 45.62,20.86C46.17,20.81 46.57,20.69 47.35,20.19C48.13,19.69 49.52,17.89 50.30,17.85C51.08,17.82 50.83,19.89 52.01,19.98C53.19,20.07 56.33,18.39 57.38,18.39C58.44,18.39 57.87,19.73 58.33,19.98C58.80,20.23 59.53,20.14 60.18,19.91C60.83,19.68 61.79,18.59 62.25,18.58C62.72,18.57 62.64,19.59 62.98,19.84C63.32,20.09 63.31,20.29 64.27,20.08C65.24,19.87 67.18,19.42 68.78,18.58C70.39,17.74 72.93,15.65 73.91,15.06C74.90,14.46 74.46,14.92 74.69,15.00C74.91,15.09 75.58,14.87 75.26,15.57C74.94,16.28 73.11,18.45 72.79,19.22C72.47,19.99 73.03,19.99 73.34,20.19C73.66,20.38 74.09,20.44 74.69,20.39C75.29,20.35 75.50,20.53 76.92,19.91C78.33,19.29 82.34,16.71 83.19,16.68C84.04,16.65 82.12,19.00 82.01,19.74C81.91,20.48 82.21,20.92 82.57,21.12C82.92,21.32 83.29,21.27 84.12,20.95C84.95,20.62 87.41,18.76 87.56,19.15C87.70,19.54 86.82,21.13 84.98,23.26C83.15,25.39 78.09,30.21 76.55,31.95C75.02,33.69 75.70,33.29 75.79,33.71C75.89,34.13 76.54,34.46 77.12,34.49C77.71,34.51 78.56,34.27 79.32,33.87C80.08,33.46 80.22,33.98 81.70,32.07C83.18,30.16 86.85,24.25 88.20,22.41C89.54,20.58 88.60,21.81 89.77,21.05C90.94,20.29 94.11,18.01 95.23,17.85C96.34,17.70 95.88,19.71 96.45,20.10C97.03,20.49 97.70,20.58 98.68,20.22C99.66,19.86 101.61,18.52 102.33,17.92C103.04,17.33 102.87,17.22 102.98,16.66C103.09,16.10 103.29,15.11 102.98,14.56C102.68,14.01 101.77,13.52 101.17,13.36C100.57,13.21 101.30,12.66 99.37,13.64C97.44,14.62 91.13,18.63 89.58,19.25C88.03,19.88 89.69,18.21 90.08,17.41C90.47,16.60 91.69,15.08 91.93,14.43C92.16,13.79 91.74,13.73 91.50,13.55C91.25,13.38 91.04,12.89 90.44,13.40C89.85,13.91 88.89,15.68 87.92,16.59C86.95,17.50 85.23,18.53 84.64,18.86C84.05,19.18 84.18,18.99 84.36,18.55C84.54,18.10 85.48,16.78 85.71,16.20C85.94,15.61 85.81,15.34 85.73,15.02C85.65,14.71 85.47,14.43 85.23,14.30C84.98,14.17 85.90,13.48 84.24,14.24C82.58,15.00 76.78,18.19 75.28,18.86C73.77,19.52 74.87,18.77 75.21,18.22C75.55,17.66 77.08,16.18 77.33,15.54C77.59,14.90 77.09,14.76 76.73,14.38C76.36,14.00 75.44,13.65 75.16,13.26C74.87,12.87 75.26,12.32 75.02,12.05C74.78,11.78 74.09,11.65 73.72,11.65C73.36,11.66 73.00,11.76 72.82,12.10C72.65,12.45 73.00,13.16 72.69,13.73C72.37,14.29 72.08,14.76 70.92,15.51C69.77,16.25 66.84,17.76 65.78,18.18C64.71,18.60 64.28,18.58 64.55,18.03C64.82,17.47 66.91,15.51 67.40,14.87C67.89,14.23 67.70,14.41 67.47,14.19C67.24,13.98 66.44,13.51 66.00,13.57C65.56,13.63 65.09,14.56 64.83,14.54C64.56,14.52 64.63,13.71 64.39,13.45C64.16,13.19 63.97,12.91 63.39,13.00C62.81,13.09 62.04,13.31 60.91,13.99C59.77,14.67 57.96,16.39 56.60,17.08C55.25,17.76 53.43,18.05 52.77,18.10C52.11,18.14 52.44,17.84 52.63,17.35C52.82,16.86 52.60,16.82 53.89,15.16C55.19,13.50 59.30,8.88 60.40,7.40C61.51,5.93 60.65,6.59 60.53,6.32C60.40,6.04 60.06,5.66 59.68,5.75C59.30,5.83 59.43,5.44 58.26,6.82C57.10,8.19 53.88,13.02 52.68,13.99C51.48,14.96 51.61,12.86 51.06,12.64C50.51,12.42 50.33,12.25 49.37,12.66C48.40,13.06 46.24,14.30 45.26,15.06C44.27,15.81 44.38,16.57 43.46,17.20C42.54,17.83 40.40,18.66 39.71,18.84C39.02,19.02 39.04,18.82 39.33,18.27C39.63,17.72 41.20,16.17 41.47,15.54C41.75,14.91 41.33,14.85 40.97,14.49C40.62,14.12 39.64,13.76 39.35,13.36C39.06,12.97 39.37,12.41 39.23,12.12C39.09,11.84 38.90,11.65 38.52,11.65C38.14,11.66 37.26,11.79 36.97,12.15C36.67,12.52 37.10,13.26 36.78,13.83C36.45,14.40 36.08,14.88 35.01,15.56C33.95,16.24 31.33,17.54 30.38,17.91C29.44,18.27 29.24,18.21 29.35,17.75C29.45,17.29 30.88,15.73 31.01,15.16C31.13,14.59 31.29,13.80 30.09,14.35C28.89,14.90 24.69,17.71 23.80,18.48Z M81.69,28.84C81.70,28.84 81.70,28.81 81.70,28.86C81.71,28.90 81.71,29.06 81.70,29.10C81.70,29.14 81.69,29.11 81.69,29.12C81.68,29.13 81.69,29.13 81.69,29.15C81.68,29.17 81.66,29.20 81.65,29.22C81.64,29.24 81.62,29.25 81.62,29.26C81.61,29.26 81.64,29.25 81.62,29.27C81.59,29.30 81.50,29.38 81.48,29.41C81.45,29.44 81.50,29.40 81.48,29.43C81.46,29.45 81.39,29.54 81.37,29.57C81.36,29.59 81.39,29.57 81.37,29.58C81.36,29.60 81.32,29.65 81.31,29.67C81.29,29.69 81.34,29.65 81.31,29.69C81.27,29.72 81.15,29.84 81.12,29.88C81.08,29.91 81.12,29.89 81.12,29.89C81.11,29.90 81.09,29.91 81.08,29.93C81.07,29.95 81.09,29.95 81.05,30.00C81.00,30.05 80.84,30.20 80.80,30.24C80.76,30.28 80.81,30.25 80.80,30.26C80.80,30.27 80.78,30.27 80.77,30.29C80.76,30.31 80.81,30.28 80.74,30.36C80.66,30.44 80.40,30.69 80.34,30.76C80.27,30.83 80.34,30.77 80.34,30.78C80.33,30.78 80.31,30.79 80.30,30.81C80.29,30.83 80.32,30.82 80.27,30.88C80.22,30.94 80.04,31.11 79.99,31.16C79.94,31.20 79.98,31.15 79.98,31.16C79.97,31.16 79.96,31.18 79.94,31.19C79.92,31.20 79.89,31.21 79.87,31.22C79.85,31.24 79.83,31.26 79.82,31.28C79.81,31.29 79.83,31.28 79.82,31.29C79.81,31.30 79.79,31.32 79.79,31.33C79.78,31.34 79.81,31.31 79.79,31.35C79.76,31.38 79.67,31.50 79.65,31.54C79.62,31.57 79.70,31.49 79.65,31.55C79.59,31.61 79.38,31.82 79.32,31.88C79.25,31.94 79.27,31.91 79.25,31.92C79.23,31.92 79.20,31.92 79.18,31.92C79.16,31.91 79.16,31.91 79.15,31.90C79.13,31.88 79.10,31.86 79.09,31.83C79.09,31.80 79.09,31.73 79.09,31.71C79.10,31.68 79.11,31.70 79.11,31.69C79.11,31.68 79.11,31.67 79.11,31.66C79.12,31.64 79.13,31.60 79.15,31.59C79.16,31.57 79.17,31.56 79.18,31.55C79.19,31.54 79.17,31.55 79.18,31.54C79.19,31.52 79.25,31.47 79.27,31.45C79.28,31.43 79.26,31.44 79.27,31.43C79.27,31.42 79.29,31.41 79.30,31.40C79.31,31.38 79.32,31.35 79.34,31.33C79.36,31.30 79.41,31.26 79.42,31.24C79.44,31.22 79.42,31.23 79.42,31.22C79.43,31.22 79.45,31.21 79.46,31.19C79.47,31.17 79.45,31.17 79.49,31.12C79.54,31.07 79.69,30.92 79.73,30.88C79.77,30.84 79.72,30.88 79.73,30.86C79.74,30.84 79.79,30.79 79.80,30.78C79.81,30.76 79.77,30.79 79.80,30.76C79.83,30.72 79.96,30.60 79.99,30.57C80.02,30.53 79.99,30.56 79.99,30.55C80.00,30.54 80.02,30.53 80.03,30.52C80.04,30.50 80.02,30.50 80.06,30.45C80.11,30.40 80.26,30.25 80.30,30.21C80.34,30.16 80.29,30.21 80.30,30.19C80.31,30.17 80.36,30.12 80.37,30.10C80.38,30.08 80.33,30.13 80.37,30.08C80.41,30.04 80.57,29.89 80.61,29.84C80.65,29.80 80.61,29.83 80.61,29.83C80.62,29.82 80.64,29.81 80.65,29.79C80.66,29.77 80.62,29.79 80.68,29.72C80.75,29.65 80.97,29.44 81.03,29.38C81.09,29.32 81.02,29.37 81.03,29.36C81.03,29.35 81.05,29.34 81.06,29.32C81.07,29.31 81.08,29.28 81.10,29.26C81.12,29.23 81.17,29.19 81.18,29.17C81.20,29.15 81.18,29.16 81.18,29.15C81.19,29.14 81.21,29.13 81.22,29.12C81.23,29.10 81.23,29.08 81.25,29.05C81.28,29.02 81.34,28.95 81.37,28.93C81.41,28.90 81.43,28.90 81.44,28.89C81.46,28.89 81.47,28.90 81.48,28.89C81.49,28.89 81.49,28.88 81.50,28.88C81.50,28.87 81.51,28.88 81.53,28.88C81.55,28.87 81.57,28.85 81.60,28.84C81.62,28.83 81.67,28.84 81.69,28.84Z M101.08,15.00C101.12,15.03 101.16,15.08 101.19,15.11C101.21,15.14 101.22,15.15 101.22,15.18C101.23,15.20 101.23,15.23 101.22,15.26C101.21,15.30 101.18,15.34 101.15,15.38C101.12,15.43 101.07,15.46 101.03,15.52C100.99,15.58 100.94,15.59 100.93,15.75C100.91,15.90 100.95,16.29 100.93,16.46C100.90,16.62 100.95,16.54 100.79,16.73C100.62,16.92 100.10,17.43 99.94,17.58C99.78,17.73 99.87,17.60 99.82,17.65C99.77,17.69 99.71,17.78 99.63,17.84C99.55,17.90 99.44,17.94 99.36,18.01C99.27,18.08 99.21,18.17 99.11,18.25C99.01,18.33 98.84,18.44 98.75,18.49C98.66,18.55 98.63,18.56 98.58,18.58C98.53,18.60 98.54,18.57 98.44,18.61C98.34,18.66 98.07,18.82 97.96,18.86C97.84,18.90 97.83,18.87 97.77,18.86C97.71,18.84 97.65,18.81 97.59,18.77C97.54,18.73 97.46,18.66 97.42,18.60C97.38,18.53 97.35,18.46 97.33,18.37C97.32,18.29 97.33,18.15 97.33,18.08C97.34,18.01 97.38,18.00 97.39,17.96C97.39,17.92 97.33,17.97 97.39,17.82C97.45,17.67 97.67,17.22 97.75,17.08C97.83,16.93 97.84,16.98 97.87,16.94C97.90,16.90 97.91,16.85 97.94,16.82C97.96,16.78 98.00,16.77 98.03,16.73C98.05,16.70 98.05,16.66 98.09,16.61C98.14,16.56 98.24,16.47 98.28,16.42C98.33,16.37 98.30,16.36 98.35,16.30C98.40,16.24 98.49,16.15 98.58,16.08C98.67,16.00 98.83,15.91 98.91,15.85C98.98,15.79 98.92,15.80 99.04,15.71C99.17,15.63 99.48,15.41 99.63,15.33C99.78,15.26 99.80,15.30 99.93,15.25C100.05,15.19 100.31,15.05 100.41,15.00C100.51,14.96 100.50,15.01 100.55,15.00C100.59,15.00 100.60,14.96 100.67,14.95C100.74,14.94 100.89,14.94 100.96,14.95C101.03,14.96 101.05,14.98 101.08,15.00Z M62.94,14.83C62.99,14.87 63.06,14.96 63.10,15.00C63.13,15.05 63.13,15.08 63.15,15.13C63.18,15.17 63.23,15.23 63.25,15.28C63.28,15.33 63.31,15.37 63.31,15.44C63.30,15.51 63.27,15.60 63.22,15.70C63.17,15.79 63.08,15.93 63.01,16.01C62.95,16.09 62.89,16.14 62.84,16.18C62.79,16.22 62.76,16.21 62.72,16.25C62.68,16.28 62.62,16.35 62.58,16.39C62.54,16.42 62.51,16.41 62.46,16.46C62.41,16.50 62.32,16.60 62.27,16.65C62.22,16.69 62.20,16.67 62.15,16.71C62.10,16.76 62.01,16.86 61.96,16.90C61.91,16.95 61.89,16.93 61.84,16.97C61.79,17.02 61.70,17.12 61.65,17.16C61.60,17.21 61.57,17.20 61.53,17.23C61.48,17.27 61.43,17.34 61.39,17.37C61.35,17.41 61.31,17.41 61.27,17.44C61.23,17.47 61.17,17.54 61.13,17.58C61.09,17.61 61.06,17.60 61.01,17.65C60.96,17.69 60.88,17.79 60.82,17.84C60.76,17.88 60.70,17.89 60.65,17.92C60.59,17.96 60.58,18.00 60.51,18.04C60.44,18.09 60.31,18.18 60.23,18.22C60.15,18.26 60.07,18.28 60.02,18.29C59.98,18.30 59.97,18.28 59.94,18.29C59.90,18.30 59.85,18.33 59.82,18.34C59.78,18.35 59.76,18.34 59.73,18.34C59.70,18.33 59.68,18.33 59.64,18.30C59.61,18.28 59.56,18.23 59.54,18.20C59.52,18.17 59.51,18.17 59.51,18.11C59.50,18.06 59.49,17.95 59.51,17.87C59.52,17.79 59.56,17.73 59.61,17.65C59.66,17.57 59.75,17.47 59.78,17.41C59.82,17.34 59.81,17.31 59.83,17.25C59.86,17.19 59.91,17.09 59.96,17.03C60.00,16.97 60.06,16.93 60.09,16.89C60.13,16.84 60.13,16.81 60.16,16.77C60.20,16.72 60.27,16.67 60.30,16.63C60.34,16.59 60.34,16.55 60.37,16.51C60.40,16.46 60.47,16.41 60.51,16.37C60.54,16.33 60.48,16.36 60.58,16.25C60.68,16.14 61.00,15.81 61.11,15.71C61.22,15.61 61.19,15.68 61.23,15.64C61.28,15.61 61.29,15.57 61.37,15.51C61.45,15.45 61.62,15.34 61.70,15.28C61.78,15.22 61.79,15.18 61.84,15.14C61.89,15.10 61.92,15.07 61.99,15.04C62.07,15.00 62.22,14.97 62.30,14.94C62.39,14.90 62.46,14.85 62.53,14.81C62.60,14.78 62.69,14.75 62.74,14.75C62.79,14.74 62.79,14.75 62.82,14.76C62.86,14.78 62.90,14.79 62.94,14.83Z M50.63,14.49C50.66,14.54 50.70,14.57 50.71,14.66C50.73,14.75 50.75,14.89 50.71,15.00C50.68,15.12 50.70,15.14 50.52,15.33C50.35,15.53 49.87,16.01 49.68,16.18C49.49,16.35 49.51,16.26 49.40,16.35C49.29,16.45 49.16,16.62 49.00,16.75C48.85,16.88 48.62,17.01 48.47,17.13C48.31,17.25 48.20,17.38 48.07,17.47C47.94,17.57 47.77,17.65 47.69,17.70C47.61,17.75 47.67,17.73 47.61,17.79C47.54,17.84 47.35,17.95 47.28,18.01C47.20,18.07 47.29,18.04 47.14,18.15C46.98,18.26 46.50,18.57 46.34,18.68C46.19,18.80 46.28,18.78 46.21,18.82C46.14,18.87 46.01,18.91 45.93,18.96C45.85,19.01 45.81,19.07 45.74,19.12C45.67,19.16 45.58,19.20 45.52,19.22C45.45,19.24 45.41,19.23 45.38,19.22C45.34,19.21 45.34,19.21 45.31,19.18C45.28,19.16 45.21,19.10 45.19,19.06C45.16,19.03 45.16,19.04 45.15,18.99C45.15,18.95 45.14,18.89 45.15,18.80C45.17,18.72 45.24,18.60 45.26,18.48C45.27,18.36 45.24,18.18 45.26,18.08C45.27,17.98 45.32,17.93 45.36,17.85C45.40,17.78 45.47,17.71 45.50,17.65C45.53,17.59 45.50,17.58 45.53,17.51C45.57,17.44 45.64,17.31 45.71,17.23C45.77,17.16 45.85,17.09 45.90,17.04C45.94,16.99 45.85,17.04 45.96,16.92C46.07,16.80 46.43,16.44 46.55,16.33C46.67,16.23 46.63,16.30 46.67,16.27C46.72,16.23 46.72,16.20 46.81,16.13C46.91,16.06 47.16,15.91 47.24,15.85C47.33,15.79 47.24,15.83 47.33,15.76C47.42,15.70 47.67,15.55 47.76,15.49C47.86,15.42 47.84,15.40 47.90,15.37C47.96,15.33 48.04,15.32 48.12,15.26C48.21,15.21 48.33,15.09 48.42,15.04C48.50,14.99 48.56,15.00 48.64,14.95C48.73,14.90 48.83,14.78 48.94,14.73C49.04,14.67 49.13,14.68 49.25,14.62C49.36,14.57 49.54,14.43 49.63,14.38C49.72,14.33 49.73,14.34 49.78,14.33C49.83,14.32 49.88,14.34 49.92,14.33C49.96,14.32 49.97,14.29 50.04,14.28C50.11,14.27 50.26,14.26 50.33,14.28C50.41,14.29 50.46,14.33 50.51,14.37C50.56,14.40 50.59,14.44 50.63,14.49Z M21.68,3.69C21.31,3.60 21.05,3.52 20.38,3.52C19.72,3.52 18.70,3.48 17.71,3.67C16.71,3.87 15.45,4.23 14.39,4.68C13.33,5.12 12.09,5.87 11.37,6.35C10.64,6.83 10.35,7.18 10.02,7.54C9.69,7.91 9.52,8.24 9.36,8.54C9.20,8.85 9.11,9.08 9.05,9.37C8.99,9.66 8.93,9.99 9.00,10.29C9.07,10.59 9.24,10.93 9.45,11.19C9.65,11.45 9.86,11.63 10.23,11.86C10.59,12.10 10.90,12.36 11.64,12.60C12.39,12.85 13.55,13.00 14.68,13.35C15.81,13.70 17.40,14.26 18.41,14.71C19.43,15.16 20.27,15.68 20.76,16.02C21.26,16.37 21.26,16.61 21.37,16.78C21.48,16.96 21.48,16.94 21.44,17.08C21.40,17.22 21.44,17.37 21.13,17.61C20.81,17.85 20.08,18.31 19.55,18.53C19.02,18.74 18.57,18.85 17.95,18.91C17.33,18.97 16.30,18.96 15.84,18.91C15.38,18.86 15.35,18.74 15.20,18.61C15.05,18.49 14.92,18.32 14.94,18.13C14.97,17.94 15.11,17.66 15.36,17.47C15.60,17.28 16.20,17.13 16.41,16.99C16.62,16.86 16.59,16.78 16.60,16.66C16.61,16.55 16.63,16.48 16.50,16.30C16.37,16.12 16.05,15.71 15.82,15.59C15.59,15.47 15.38,15.53 15.11,15.59C14.85,15.66 14.55,15.78 14.22,15.99C13.89,16.20 13.37,16.61 13.13,16.87C12.88,17.13 12.82,17.35 12.75,17.56C12.67,17.78 12.63,17.92 12.68,18.17C12.73,18.42 12.90,18.83 13.04,19.06C13.18,19.30 13.17,19.35 13.51,19.60C13.85,19.85 14.61,20.36 15.06,20.55C15.52,20.74 15.70,20.74 16.25,20.76C16.81,20.77 17.63,20.79 18.41,20.65C19.20,20.52 20.31,20.20 20.95,19.96C21.59,19.72 21.90,19.48 22.27,19.22C22.63,18.96 22.91,18.71 23.15,18.39C23.39,18.07 23.62,17.62 23.70,17.28C23.78,16.95 23.82,16.75 23.63,16.37C23.44,15.99 22.99,15.40 22.58,15.00C22.16,14.61 21.97,14.43 21.13,13.99C20.28,13.54 19.00,12.91 17.48,12.33C15.97,11.75 13.09,10.94 12.04,10.51C10.99,10.09 11.32,10.06 11.16,9.79C11.00,9.51 10.94,9.19 11.07,8.86C11.20,8.52 11.62,8.08 11.94,7.78C12.25,7.49 12.30,7.40 12.97,7.06C13.65,6.72 14.98,6.05 16.00,5.75C17.01,5.45 18.20,5.32 19.05,5.26C19.91,5.21 20.72,5.34 21.11,5.42C21.50,5.50 21.38,5.60 21.38,5.75C21.39,5.89 21.38,6.04 21.13,6.28C20.88,6.52 20.33,6.93 19.88,7.20C19.44,7.47 19.16,7.66 18.47,7.91C17.77,8.15 16.36,8.52 15.72,8.65C15.07,8.77 14.96,8.76 14.60,8.65C14.23,8.54 13.78,8.10 13.54,7.99C13.31,7.88 13.35,7.87 13.20,7.97C13.04,8.08 12.71,8.40 12.63,8.60C12.55,8.80 12.61,8.98 12.71,9.17C12.81,9.36 12.95,9.54 13.23,9.74C13.51,9.93 13.81,10.24 14.39,10.34C14.97,10.44 15.82,10.51 16.70,10.34C17.59,10.17 18.73,9.82 19.71,9.34C20.69,8.86 21.93,8.01 22.58,7.46C23.22,6.90 23.40,6.33 23.58,5.99C23.76,5.65 23.69,5.64 23.65,5.44C23.60,5.23 23.48,4.97 23.30,4.74C23.12,4.52 22.85,4.26 22.58,4.09C22.31,3.91 22.04,3.79 21.68,3.69Z" fill="#000000" fill-rule="evenodd"/>
</svg>