<?xml version="1.0" encoding="UTF-8"?>
<svg xmlns="http://www.w3.org/2000/svg" viewBox="0 0 100 100" width="200" height="200">
  <path d="M33.30,4.31C32.65,4.14 32.18,4.01 31.00,4.00C29.82,3.99 28.02,3.93 26.24,4.28C24.46,4.62 22.22,5.26 20.35,6.06C18.47,6.85 16.27,8.19 14.97,9.03C13.68,9.88 13.17,10.50 12.58,11.15C11.99,11.80 11.70,12.39 11.41,12.93C11.13,13.48 10.97,13.89 10.86,14.41C10.75,14.92 10.65,15.50 10.77,16.03C10.89,16.57 11.20,17.16 11.57,17.63C11.93,18.10 12.30,18.41 12.95,18.83C13.60,19.25 14.15,19.71 15.47,20.15C16.79,20.59 18.86,20.84 20.87,21.47C22.87,22.09 25.70,23.10 27.50,23.89C29.30,24.68 30.80,25.61 31.67,26.22C32.55,26.84 32.55,27.26 32.75,27.58C32.95,27.89 32.94,27.85 32.87,28.10C32.80,28.34 32.88,28.62 32.32,29.05C31.76,29.48 30.47,30.29 29.52,30.68C28.58,31.06 27.77,31.24 26.67,31.35C25.57,31.46 23.74,31.44 22.92,31.35C22.11,31.26 22.06,31.06 21.79,30.83C21.52,30.60 21.28,30.31 21.33,29.97C21.37,29.63 21.63,29.14 22.07,28.80C22.50,28.47 23.57,28.18 23.94,27.94C24.31,27.70 24.25,27.57 24.28,27.36C24.30,27.16 24.32,27.03 24.09,26.72C23.86,26.40 23.30,25.67 22.89,25.46C22.48,25.25 22.11,25.34 21.64,25.46C21.16,25.58 20.63,25.78 20.04,26.16C19.45,26.54 18.54,27.26 18.11,27.73C17.67,28.19 17.56,28.57 17.43,28.96C17.30,29.34 17.13,29.48 17.31,30.03C17.48,30.58 17.77,31.57 18.47,32.27C19.18,32.98 20.68,33.87 21.54,34.27C22.41,34.66 22.67,34.61 23.66,34.64C24.65,34.67 26.11,34.69 27.50,34.45C28.89,34.22 30.87,33.65 32.01,33.22C33.15,32.80 33.69,32.37 34.34,31.90C34.99,31.44 35.49,31.00 35.91,30.43C36.33,29.86 36.75,29.06 36.89,28.47C37.04,27.87 37.10,27.51 36.77,26.84C36.44,26.16 35.64,25.12 34.90,24.41C34.16,23.71 33.83,23.40 32.32,22.60C30.81,21.81 28.53,20.68 25.84,19.66C23.15,18.63 18.04,17.18 16.17,16.43C14.30,15.68 14.89,15.63 14.61,15.14C14.32,14.65 14.22,14.08 14.45,13.49C14.68,12.89 15.42,12.11 15.99,11.58C16.55,11.05 16.63,10.90 17.83,10.29C19.03,9.69 21.40,8.49 23.20,7.96C25.00,7.43 27.12,7.20 28.63,7.10C30.15,7.00 31.60,7.23 32.29,7.38C32.98,7.52 32.77,7.70 32.78,7.96C32.78,8.22 32.76,8.48 32.32,8.91C31.87,9.34 30.90,10.06 30.11,10.54C29.32,11.02 28.82,11.37 27.59,11.80C26.36,12.23 23.86,12.90 22.71,13.12C21.56,13.34 21.36,13.31 20.71,13.12C20.07,12.92 19.26,12.15 18.84,11.95C18.43,11.75 18.50,11.74 18.23,11.92C17.96,12.10 17.36,12.67 17.22,13.03C17.07,13.38 17.19,13.70 17.37,14.04C17.55,14.38 17.79,14.70 18.29,15.05C18.79,15.40 19.32,15.95 20.35,16.13C21.37,16.30 22.88,16.42 24.46,16.13C26.04,15.83 28.06,15.20 29.80,14.35C31.54,13.49 33.75,11.99 34.90,11.00C36.04,10.01 36.36,8.99 36.68,8.39C36.99,7.79 36.88,7.78 36.80,7.41C36.72,7.04 36.50,6.58 36.19,6.18C35.87,5.78 35.38,5.33 34.90,5.01C34.42,4.70 33.95,4.48 33.30,4.31Z" fill="#000000" fill-rule="evenodd"/>
</svg>